<svg height="654.54324" viewBox="0 0 1139.17088 654.54324" width="1139.17088" xmlns="http://www.w3.org/2000/svg">
  <circle cx="246.82682" cy="521.76476" fill="#f2f2f2" r="59.24334"/>
  <circle cx="256.45989" cy="513.095" fill="#4ebfd6" r="59.24334"/>
  <path d="m304.17137 447.54324h732.99951v2h-732.99951z" fill="#3f3d56"/>
  <path
      d="m714.20735 141.38055h-260.1696v-5.36232h-117.971v5.36232h-261.24208a17.5985 17.5985 0 0 0 -17.59852 17.59851v356.25219a17.59856 17.59856 0 0 0 17.59852 17.59858h639.38268a17.59856 17.59856 0 0 0 17.59852-17.59858v-356.25219a17.5985 17.5985 0 0 0 -17.59852-17.59851z"
      fill="#3f3d56" transform="translate(-30.41456 -122.72838)"/>
  <path d="m50.4058 49.75362h627.3913v353.91304h-627.3913z" fill="#4ebfd6"/>
  <circle cx="363.56522" cy="33.66667" fill="#4ebfd6" r="6.43478"/>
  <path d="m498.374 403.667h-447.968v-353.913z" opacity=".1"/>
  <circle cx="148.57375" cy="316.87641" fill="#f2f2f2" r="60.3068"/>
  <g fill="#3f3d56">
    <path d="m509.95272 240.62175h58.6052v12.24586h-58.6052z"/>
    <path d="m439.10165 145.27896h200.30733v5.24823h-200.30733z"/>
    <path d="m439.10165 161.89834h200.30733v5.24823h-200.30733z"/>
    <path d="m439.10165 178.51773h200.30733v5.24823h-200.30733z"/>
    <path d="m439.10165 195.13711h200.30733v5.24823h-200.30733z"/>
    <path d="m439.10165 211.7565h200.30733v5.24823h-200.30733z"/>
  </g>
  <path d="m614.91726 56.9338h24.49173v24.49173h-24.49173z" fill="#f2f2f2"/>
  <path d="m681.1947 215.52507h-29.74v-29.74h29.74zm-28.44691-1.293h27.15387v-27.15391h-27.15387z" fill="#3f3d56"
        transform="translate(-30.41456 -122.72838)"/>
  <path
      d="m749.42165 519.96024h-61.22931v-4.41153a.87468.87468 0 0 0 -.87471-.87471h-20.9929a.87468.87468 0 0 0 -.87471.87471v4.41153h-13.12057v-4.41153a.87467.87467 0 0 0 -.8747-.87471h-20.99291a.87468.87468 0 0 0 -.8747.87471v4.41153h-13.12057v-4.41153a.87468.87468 0 0 0 -.8747-.87471h-20.99287a.87468.87468 0 0 0 -.87471.87471v4.41153h-13.1206v-4.41153a.87468.87468 0 0 0 -.87471-.87471h-20.99291a.87468.87468 0 0 0 -.8747.87471v4.41153h-13.12057v-4.41153a.87468.87468 0 0 0 -.8747-.87471h-20.99291a.87467.87467 0 0 0 -.8747.87471v4.41153h-13.12057v-4.41153a.87468.87468 0 0 0 -.87471-.87471h-20.9929a.87468.87468 0 0 0 -.87471.87471v4.41153h-13.1206v-4.41153a.87468.87468 0 0 0 -.8747-.87471h-164.44442a.87468.87468 0 0 0 -.8747.87471v4.41153h-13.12057v-4.41153a.87468.87468 0 0 0 -.8747-.87471h-20.99291a.87467.87467 0 0 0 -.8747.87471v4.41153h-13.12057v-4.41153a.87468.87468 0 0 0 -.87471-.87471h-20.9929a.87468.87468 0 0 0 -.87471.87471v4.41153h-13.12057v-4.41153a.87467.87467 0 0 0 -.8747-.87471h-20.99291a.87468.87468 0 0 0 -.8747.87471v4.41153h-13.12053v-4.41153a.87468.87468 0 0 0 -.8747-.87471h-20.99295a.87468.87468 0 0 0 -.87471.87471v4.41153h-13.12056v-4.41153a.87468.87468 0 0 0 -.87471-.87471h-20.99291a.87468.87468 0 0 0 -.8747.87471v4.41153h-13.12057v-4.41153a.87468.87468 0 0 0 -.8747-.87471h-20.99291a.87467.87467 0 0 0 -.8747.87471v4.41153h-40.23641a20.99293 20.99293 0 0 0 -20.99291 20.99291v9.4925a20.99291 20.99291 0 0 0 20.99291 20.99285h698.01418a20.9929 20.9929 0 0 0 20.99291-20.99285v-9.4925a20.99292 20.99292 0 0 0 -20.99291-20.99291z"
      fill="#3f3d56" transform="translate(-30.41456 -122.72838)"/>
  <path
      d="m193.58593 477.27162a76 76 0 1 1 76-76 76.08614 76.08614 0 0 1 -76 76zm0-150a74 74 0 1 0 74 74 74.08385 74.08385 0 0 0 -74-74z"
      fill="#3f3d56" transform="translate(-30.41456 -122.72838)"/>
  <path d="m586.17137 32.54324h254.99951v2h-254.99951z" fill="#3f3d56"/>
  <path d="m406.17137 560.54324h732.99951v2h-732.99951z" fill="#3f3d56"/>
  <path d="m192.67161 652.54324h254.99951v2h-254.99951z" fill="#3f3d56"/>
  <path d="m471 550h28v28h-28z" fill="#4ebfd6"/>
  <path d="m546.41456 684.72838h-34v-34h34zm-32.52174-1.47826h31.04348v-31.04348h-31.04348z" fill="#3f3d56"
        transform="translate(-30.41456 -122.72838)"/>
  <path d="m796 22h28v28h-28z" fill="#4ebfd6"/>
  <path d="m871.41456 156.72838h-34v-34h34zm-32.52174-1.47826h31.04348v-31.04348h-31.04348z" fill="#3f3d56"
        transform="translate(-30.41456 -122.72838)"/>
  <path d="m1078 550h28v28h-28z" fill="#4ebfd6"/>
  <path d="m1153.41456 684.72838h-34v-34h34zm-32.52174-1.47826h31.04348v-31.04348h-31.04348z" fill="#3f3d56"
        transform="translate(-30.41456 -122.72838)"/>
  <path
      d="m1087.58593 354.6866h-2.37862v-65.1616a37.71374 37.71374 0 0 0 -37.71385-37.71377h-138.05346a37.71373 37.71373 0 0 0 -37.71387 37.71377v357.48139a37.71374 37.71374 0 0 0 37.71387 37.71378h138.05348a37.71374 37.71374 0 0 0 37.71385-37.71378v-245.9367h2.37862z"
      fill="#3f3d56" transform="translate(-30.41456 -122.72838)"/>
  <path
      d="m1077.176 291.74159v356.96a28.16523 28.16523 0 0 1 -28.16016 28.17h-138.71984a28.16511 28.16511 0 0 1 -28.16-28.17v-356.96a28.163 28.163 0 0 1 28.16-28.16h16.83a13.3792 13.3792 0 0 0 12.39 18.43h79.09a13.37908 13.37908 0 0 0 12.38995-18.43h18.02a28.16308 28.16308 0 0 1 28.16005 28.16z"
      fill="#4ebfd6" transform="translate(-30.41456 -122.72838)"/>
  <path d="m928.57968 376.21769h41.32357v12.24586h-41.32357z" fill="#3f3d56"/>
  <path d="m878.62133 280.8749h141.24028v5.24823h-141.24028z" fill="#3f3d56"/>
  <path d="m878.62133 297.49429h141.24028v5.24823h-141.24028z" fill="#3f3d56"/>
  <path d="m878.62133 314.11367h141.24028v5.24823h-141.24028z" fill="#3f3d56"/>
  <path d="m878.62133 330.73306h141.24028v5.24823h-141.24028z" fill="#3f3d56"/>
  <path d="m878.62133 347.35244h141.24028v5.24823h-141.24028z" fill="#3f3d56"/>
  <path d="m929.68352 211.17873h24.49173v24.49173h-24.49173z" fill="#f2f2f2"/>
  <path d="m969.47386 340.03163v29.74h29.74v-29.74zm28.45 28.45h-27.16v-27.16h27.16z" fill="#3f3d56"
        transform="translate(-30.41456 -122.72838)"/>
  <path
      d="m1077.176 610.58162v38.12a28.16523 28.16523 0 0 1 -28.16016 28.17h-138.71984a28.16511 28.16511 0 0 1 -28.16-28.17v-192.21l116.87 92.33 2 1.58 21.74 17.17 2.03 1.61z"
      opacity=".1" transform="translate(-30.41456 -122.72838)"/>
  <circle cx="937.24147" cy="498.70691" fill="#f2f2f2" r="43.86783"/>
  <path
      d="m350.58593 777.27162a87 87 0 1 1 87-87 87.09858 87.09858 0 0 1 -87 87zm0-172a85 85 0 1 0 85 85 85.09629 85.09629 0 0 0 -85-85z"
      fill="#3f3d56" transform="translate(-30.41456 -122.72838)"/>
  <path
      d="m980.58593 655.27162a55 55 0 1 1 55-55 55.06223 55.06223 0 0 1 -55 55zm0-108a53 53 0 1 0 53 53 53.05963 53.05963 0 0 0 -53-53z"
      fill="#3f3d56" transform="translate(-30.41456 -122.72838)"/>
</svg>
