<svg height="629.902" viewBox="0 0 898.235 629.902" width="898.235" xmlns="http://www.w3.org/2000/svg">
  <path d="m727.966 744.257s7.3-24.57-20.468-38.559z" fill="#e6e6e6" transform="translate(-128.211 -136.684)"/>
  <path d="m730.561 745.406s2.895-24.249 35.237-25.769z" fill="#e6e6e6" transform="translate(-129.895 -137.702)"/>
  <path d="m982.957 747.585c-5.136 21.131-274.791 19.357-274.383 0 5.136-21.131 274.791-19.357 274.383 0z"
        fill="#e6e6e6" transform="translate(-130.144 -132.873)"/>
  <ellipse cx="93.108" cy="55.964" fill="#fff" rx="4.354" ry="4.354"/>
  <ellipse cx="109.633" cy="55.964" fill="#fff" rx="4.354" ry="4.354"/>
  <ellipse cx="126.158" cy="55.964" fill="#fff" rx="4.354" ry="4.354"/>
  <path d="m82.529 66.193h552.899v3.073h-552.899z" fill="#fff"/>
  <path
      d="m894.817 636.335s-3.2-10.845 2.014-7.307 20.391 8.851 14.923 17.36-38.195 55.542-43.487 46.222c-2.938-5.174 7.3-49.061 7.3-49.061s7.283-1.683 8.326 0 10.924-7.214 10.924-7.214z"
      fill="#2f2e41" transform="translate(-99.545 -129.18)"/>
  <path d="m689.792 207.972-.978 17.6-12.714 25.428 42.054-1.956-2.934-26.406 1.956-10.758z" fill="#ffb8b8"
        transform="translate(58.526 22.397)"/>
  <path d="m839.559 371s6.846 7.824 24.45-.978l13.692 66.5 1.956 59.658-58.68-1.956.978-60.636z" fill="#d1d1d1"
        transform="translate(-96.13 -110.317)"/>
  <path d="m805.636 507.2s6.318 31.039 18.13 23.519-2.546-29.311-2.546-29.311z" fill="#ffb8b8"
        transform="translate(-95.01 -119.911)"/>
  <path d="m712.95 557.116-.978 16.626 15.648 4.89v-22.494z" fill="#ffb8b8" transform="translate(55.906 -3.029)"/>
  <path d="m657.11 369.394v97.8l55.746 47.923 13.691-23.473-39.12-32.273 9.78-24.45 41.076-26.407v-38.142z"
        fill="#2f2e41" transform="translate(59.913 10.609)"/>
  <path d="m856.848 561.511 5.868 49.878 1.956 66.5h25.428s8.8-58.68-.978-73.35l7.824-64.539-7.824-25.428z"
        fill="#2f2e41" transform="translate(-98.75 -120.873)"/>
  <path
      d="m879.188 704.168s.978-3.912-5.868-3.912-9.78.978-9.78 1.956a42.365 42.365 0 0 1 -.978 4.89s-17.6 44.01 0 42.054 20.538-10.756 20.538-10.756l1.956-28.362s-1.956-2.395-2.934-2.175-2.934-3.695-2.934-3.695z"
      fill="#2f2e41" transform="translate(-98.595 -134.433)"/>
  <circle cx="763.967" cy="218.633" fill="#ffb8b8" r="21.516"/>
  <path
      d="m865.924 375.49-6.846-7.824 13.236-16.566 5.346 5.8 31.3 13.692-8.8 86.064s-.978 25.428 4.89 43.032c0 0-12.714 15.648-32.274 11.736l-25.428 4.89s-2.94-126.154 18.576-140.824z"
      fill="#575a89" transform="translate(-98.045 -108.935)"/>
  <path d="m686.373 240.449 1.124-16.3-5.035 6.519-26.406 19.56 2.934 108.558 8.8 4.891 14.671-116.377z" fill="#575a89"
        transform="translate(59.99 21.216)"/>
  <path
      d="m817.71 381.631-6.846.978s-4.89 8.8-4.89 9.78-1.956 51.834-1.956 51.834-3.423 51.345 2.445 61.125l17.314-18.628-6.067-17.069z"
      fill="#575a89" transform="translate(-94.819 -111.164)"/>
  <path d="m706.983 483.892 1.349 32.736-4.067-3.5z" opacity=".3" transform="translate(56.469 2.247)"/>
  <path d="m742.039 497.981-1.427.707-1.53 43.855 3.535-4.55z" opacity=".3" transform="translate(53.927 1.218)"/>
  <path d="m928.525 512.457s-4.89 31.3 8.8 28.362 7.824-28.362 7.824-28.362z" fill="#ffb8b8"
        transform="translate(-103.922 -120.718)"/>
  <path
      d="m904.017 372.136h8.8s5.868 2.934 6.846 11.736 14.67 47.922 14.67 47.922 15.648 64.548 14.67 73.35h-24.45l1.956-17.6-26.406-70.416z"
      fill="#575a89" transform="translate(-101.909 -110.471)"/>
  <path
      d="m842.977 302.268-4.1-1.642s8.576-9.442 20.508-8.621l-3.356-3.695s8.2-3.284 15.661 5.337c3.92 4.532 8.456 9.859 11.284 15.859h4.393l-1.833 4.037 6.417 4.037-6.586-.725a22.557 22.557 0 0 1 .179 6.7 8.664 8.664 0 0 1 -3.172 5.667s-5.087-10.529-5.087-12.171v4.105s-4.1-3.695-4.1-6.158l-2.237 2.874-1.119-4.516-13.8 4.516 2.237-3.695-8.576 1.232 3.356-4.516s-9.695 5.337-10.068 9.852a21.681 21.681 0 0 1 -3.211 8.795s-7.604-21.114 3.21-27.272z"
      fill="#2f2e41" transform="translate(-97.312 -104.304)"/>
  <path d="m.271.36h635.631v407.086h-635.631z" fill="#e6e6e6"/>
  <path d="m0 0h635.631v27.004h-635.631z" fill="#4ebfd6"/>
  <path d="m18.972 48.785h599.28v155.185h-599.28z" fill="#fff"/>
  <path d="m19.351 229.471h599.28v155.185h-599.28z" fill="#fff"/>
  <path d="m221.34 83.115h324.331v14.455h-324.331z" fill="#e6e6e6"/>
  <path d="m221.34 119.252h115.639v14.455h-115.639z" fill="#e6e6e6"/>
  <path d="m221.34 155.389h230.375v14.455h-230.375z" fill="#e6e6e6"/>
  <path
      d="m355.985 256.388a53.871 53.871 0 0 1 -8.807 29.607 52.67 52.67 0 0 1 -3.962 5.321 54.386 54.386 0 0 1 -11.609 10.315q-1.771 1.174-3.642 2.2a53.7 53.7 0 0 1 -21.042 6.48c-1.679.164-3.386.242-5.108.242a53.954 53.954 0 0 1 -13.978-1.828 51.9 51.9 0 0 1 -7.562-2.625q-1.878-.811-3.671-1.764a53.355 53.355 0 0 1 -8.159-5.285q-1.782-1.387-3.436-2.924a54.167 54.167 0 1 1 90.975-39.736z"
      fill="#e6e6e6" transform="translate(-156.403 -129.939)"/>
  <path
      d="m304.673 283.222s4.931 13.7 1.1 21.368 6.027 16.437 6.027 16.437 25.752-13.15 22.464-19.725-8.766-15.341-7.671-20.82z"
      fill="#ffb8b8" transform="translate(-172.388 -151.88)"/>
  <ellipse cx="141.874" cy="119.014" fill="#ffb8b8" rx="17.533" ry="17.533"/>
  <g fill="#575a89">
    <path
        d="m300.545 337.355a51.9 51.9 0 0 1 -7.562-2.625l.47-13.31 4.93-10.962a22.923 22.923 0 0 0 3.543 2.283c.3.164.6.32.932.477 4.624 2.234 12.178 4.2 19.5-1.28a27.88 27.88 0 0 0 6.737-7.583l13.672 7.747.718 8.394.832 9.767q-1.771 1.174-3.642 2.2a53.7 53.7 0 0 1 -21.042 6.48c-1.679.164-3.386.242-5.108.242a53.95 53.95 0 0 1 -13.98-1.83z"
        transform="translate(-169.111 -158.572)"/>
    <path
        d="m298.543 301.44v.021l-.69 7.156-.363 3.784-.533 5.627-1.778 18.51a51.9 51.9 0 0 1 -7.562-2.625q-1.878-.811-3.671-1.764a53.356 53.356 0 0 1 -8.159-5.285l-1.949-9 .149-.1z"
        transform="translate(-163.744 -157.755)"/>
    <path
        d="m351.052 329.865a53.7 53.7 0 0 1 -21.042 6.48c.4-6.658.982-13.089 1.643-18.815.341-2.938.7-5.684 1.081-8.188 1.188-8.045 2.468-13.509 3.386-14.248l6.061 4 24.656 8.764-.534 9.49a54.387 54.387 0 0 1 -11.609 10.315q-1.771 1.178-3.642 2.202z"
        transform="translate(-179.491 -155.976)"/>
    <path
        d="m275.207 333.048q-1.782-1.387-3.436-2.924l.939-6.075.7-.1 3.137-.448 6.822 14.832a53.351 53.351 0 0 1 -8.159-5.285z"
        transform="translate(-163.165 -163.939)"/>
    <path
        d="m378.21 316.578a52.666 52.666 0 0 1 -3.962 5.321 54.386 54.386 0 0 1 -11.609 10.315q-1.771 1.174-3.642 2.2l-.647-2.824 3.457-9.141 4.211-11.133 8.764 1.1a51.321 51.321 0 0 1 3.428 4.162z"
        transform="translate(-187.434 -160.523)"/>
  </g>
  <path
      d="m326.949 241.387a20.483 20.483 0 0 0 -11.649-8.907l-3.562 2.85 1.385-3.324a18.855 18.855 0 0 0 -3.521-.2l-3.205 4.121 1.327-3.98a20.287 20.287 0 0 0 -13.995 8.325c-4.079 5.882-4.768 14.062-.755 19.99 1.1-3.385 2.438-6.561 3.54-9.946a10.017 10.017 0 0 0 2.61.013l1.34-3.127.374 2.994c4.153-.362 10.314-1.156 14.251-1.884l-.383-2.3 2.291 1.909c1.206-.278 1.923-.53 1.863-.722 2.928 4.721 5.83 7.736 8.758 12.457 1.109-6.656 3.071-12.194-.669-18.269z"
      fill="#2f2e41" transform="translate(-168.356 -138.23)"/>
  <ellipse cx="157.622" cy="118.464" fill="#ffb8b8" rx="1.187" ry="2.374"/>
  <path
      d="m356.06 429.339a53.91 53.91 0 0 1 -8.813 29.627 52.691 52.691 0 0 1 -3.965 5.325 54.426 54.426 0 0 1 -11.617 10.322q-1.773 1.175-3.645 2.2a53.739 53.739 0 0 1 -21.057 6.485c-1.68.164-3.388.242-5.111.242a53.986 53.986 0 0 1 -13.988-1.829 51.937 51.937 0 0 1 -7.567-2.627q-1.879-.812-3.673-1.765a53.393 53.393 0 0 1 -8.165-5.289q-1.783-1.388-3.438-2.926a54.2 54.2 0 1 1 91.039-39.764z"
      fill="#4ebfd6" transform="translate(-159.113 -123.07)"/>
  <path d="m139.42 280.966h6.645v50.592h-6.645z" fill="#fff"/>
  <path d="m0 0h6.645v50.592h-6.645z" fill="#fff" transform="matrix(0 1 -1 0 168.038 302.94)"/>
  <path d="m213.209 263.801h324.331v14.455h-324.331z" fill="#e6e6e6"/>
  <path d="m213.209 299.938h115.639v14.455h-115.639z" fill="#e6e6e6"/>
  <path d="m213.209 336.075h230.375v14.455h-230.375z" fill="#e6e6e6"/>
  <path
      d="m1004.717 580.212a55.661 55.661 0 0 1 -22.017 44.363q-1.488 1.132-3.049 2.169-.4.266-.8.511c-.97.622-1.954 1.2-2.953 1.747q-.6.333-1.2.644c-.081.044-.156.081-.237.118-.511.266-1.021.526-1.539.77a54.529 54.529 0 0 1 -6.994 2.768 55.266 55.266 0 0 1 -11.664 2.368q-2.6.244-5.255.244a55.462 55.462 0 0 1 -14.373-1.88 53.518 53.518 0 0 1 -7.061-2.391c-.237-.1-.481-.2-.718-.3q-1.687-.733-3.308-1.576l-.466-.244q-1.765-.921-3.449-1.969a55.823 55.823 0 0 1 -4.944-3.464q-1.21-.933-2.354-1.954c-.4-.34-.792-.7-1.177-1.051a56.82 56.82 0 0 1 -4.256-4.4c-.533-.614-1.051-1.236-1.554-1.873a55.709 55.709 0 1 1 99.369-34.6z"
      fill="#e6e6e6" transform="translate(-106.482 -109.042)"/>
  <circle cx="859.912" cy="487.779" fill="#2f2e41" r="8.349"/>
  <path d="m992.913 610.808a8.35 8.35 0 0 1 7.35 12.312 8.347 8.347 0 1 0 -13.868-9.172 8.329 8.329 0 0 1 6.519-3.14z"
        fill="#2f2e41" transform="translate(-130.675 -131.148)"/>
  <circle cx="844.31" cy="463.235" fill="#2f2e41" r="24.526"/>
  <path
      d="m942.359 565.215a24.522 24.522 0 0 1 33.99-2.572c-.2-.191-.4-.383-.607-.568a24.526 24.526 0 1 0 -32.59 36.66c.208.185.422.36.635.537a24.522 24.522 0 0 1 -1.427-34.057z"
      fill="#2f2e41" transform="translate(-117.298 -117.197)"/>
  <circle cx="844.102" cy="471.757" fill="#a0616a" r="15.796"/>
  <path d="m954.977 607.308s2.078 19.122-1.247 21.2 19.122 4.988 19.122 4.988-3.326-20.785 4.988-26.189z" fill="#a0616a"
        transform="translate(-122.099 -130.562)"/>
  <path
      d="m983.626 647.673v6.039c-.97.622-1.954 1.2-2.953 1.747q-.6.333-1.2.644v.118h-.237c-.511.266-1.021.525-1.54.77a54.506 54.506 0 0 1 -6.994 2.768 55.274 55.274 0 0 1 -11.664 2.368q-2.6.244-5.255.244a55.459 55.459 0 0 1 -14.373-1.88 53.5 53.5 0 0 1 -7.061-2.391c-.237-.1-.481-.2-.718-.3q-1.687-.733-3.308-1.576l-.466-.244q-1.765-.921-3.449-1.969a55.822 55.822 0 0 1 -4.944-3.464q-1.21-.933-2.354-1.954c-.4-.341-.792-.7-1.177-1.051a56.809 56.809 0 0 1 -4.256-4.4 20.484 20.484 0 0 1 .873-3.693l.008-.007a7.732 7.732 0 0 1 .4-.918c1.791-3.353 5.025-4.182 9.052-4.359 2.265-.1 4.774.007 7.431-.022 1.4-.007 2.842-.059 4.3-.192 9.148-.829 7.483-6.232 7.9-9.141.407-2.82 2.946-.377 3.116-.215l.007.007a32.279 32.279 0 0 0 16.6 2.916h.007a28.556 28.556 0 0 1 2.938-.222c2.576-.03 2.013.71 1.132 1.317a11.66 11.66 0 0 1 -1.354.762s-.414 2.494-.829 6.239c-.4 3.582 6.461 5.262 7.031 5.388a.074.074 0 0 0 .037.015 13.816 13.816 0 0 1 7.616.192 9.032 9.032 0 0 1 5.684 6.461z"
      fill="#4ebfd6" transform="translate(-111.258 -134.76)"/>
  <path
      d="m935.963 659.37c-.022.674-.059 1.3-.1 1.88-.237-.1-.481-.2-.718-.3q-1.687-.733-3.308-1.576l-.466-.244q-1.765-.921-3.449-1.969a17.334 17.334 0 0 1 .192-1.761 32.226 32.226 0 0 0 -2.59-18.081c-.2-.407-.318-.629-.318-.629s2.909-2.494 7.061 0a2.746 2.746 0 0 1 .688.607c2.756 3.259 3.296 15.013 3.008 22.073z"
      fill="#2f2e41" transform="translate(-114.774 -137.909)"/>
  <path
      d="m998.222 661.95c-.007.252-.022.511-.037.77a54.51 54.51 0 0 1 -6.994 2.768l-.141-3.538-.533-14.047a2.229 2.229 0 0 1 .259-1.169 2.269 2.269 0 0 1 2.024-1.234h5.077c.252 0 .429.511.548 1.436.323 2.573.167 8.324-.203 15.014z"
      fill="#2f2e41" transform="translate(-131.746 -140.489)"/>
  <path d="m797.018 443.487v15.8h3.658l4.655-4.988-.623 4.988h16.17l-1-4.988 2 4.988h2.578v-15.8z" fill="#2f2e41"
        transform="translate(33.574 8.525)"/>
  <ellipse cx="828.098" cy="468.432" fill="#a0616a" rx="1.247" ry="2.286"/>
  <ellipse cx="860.107" cy="468.432" fill="#a0616a" rx="1.247" ry="2.286"/>
  <path
      d="m1011.279 658.365q-1.488 1.133-3.049 2.169-.4.267-.8.511c-.97.622-1.954 1.2-2.953 1.747q-.6.333-1.2.644v-11.76s1.606 1.28 4.152 3.412c1.119.939 2.422 2.049 3.85 3.277z"
      fill="#4ebfd6" transform="translate(-135.063 -142.092)"/>
  <circle cx="42.039" cy="13.433" fill="#fff" r="4.467"/>
  <circle cx="58.995" cy="13.433" fill="#fff" r="4.467"/>
  <circle cx="25.039" cy="13.433" fill="#fff" r="4.467"/>
</svg>
