<svg xmlns="http://www.w3.org/2000/svg" width="11" height="15.381" viewBox="0 0 11 15.381">
    <g id="Group_149" data-name="Group 149" transform="translate(0 0)">
        <path id="Path_133" data-name="Path 133" d="M56.083-10.615c.171.036.346.059.511.112a2.158,2.158,0,0,1,1.5,1.9,2.135,2.135,0,0,1-1.025,2.034A.118.118,0,0,0,57-6.455q0,2.531,0,5.062v.069a.483.483,0,0,0,.055-.02A4.229,4.229,0,0,1,58.743-1.8c.235-.016.472-.009.7-.041a2.22,2.22,0,0,0,1.338-.74,2.165,2.165,0,0,0,.608-1.271,3.542,3.542,0,0,0,.007-.439c0-.027-.034-.06-.061-.078a2.179,2.179,0,0,1-.979-1.366,2.2,2.2,0,0,1,1.727-2.645,2.091,2.091,0,0,1,2.22.882A2.175,2.175,0,0,1,63.693-4.4a.16.16,0,0,0-.091.16,4.259,4.259,0,0,1-1.255,3.106A4.764,4.764,0,0,1,60.437.145a3.593,3.593,0,0,1-1.181.22,2.747,2.747,0,0,0-.947.149,1.819,1.819,0,0,0-.785.557,2.3,2.3,0,0,1,.447.735A2.2,2.2,0,1,1,54.733.725.139.139,0,0,0,54.811.59q0-3.516,0-7.031a.131.131,0,0,0-.068-.125A2.133,2.133,0,0,1,53.735-8.75a2.167,2.167,0,0,1,1.619-1.8c.121-.031.245-.047.368-.07Zm-.175,3.3a1.107,1.107,0,0,0,1.1-1.1,1.111,1.111,0,0,0-1.105-1.1,1.105,1.105,0,0,0-1.093,1.1A1.1,1.1,0,0,0,55.908-7.316Zm-1.1,9.9a1.1,1.1,0,1,0,1.1-1.1A1.107,1.107,0,0,0,54.809,2.583Zm7.694-7.7a1.1,1.1,0,0,0,1.1-1.1,1.109,1.109,0,0,0-1.095-1.1,1.112,1.112,0,0,0-1.1,1.1A1.108,1.108,0,0,0,62.5-5.116Z" transform="translate(-53.707 10.615)" fill="#fff"/>
    </g>
</svg>
