<svg height="51.943" viewBox="0 0 51.944 51.943" width="51.944" xmlns="http://www.w3.org/2000/svg">
  <rect data-name="Rectangle 428" fill="#fff" height="51.944" id="Rectangle_428" rx="5" width="51.944"/>
  <g data-name="Group 240" id="Group_240" transform="translate(17.162 10.816)">
    <path
        d="M338.581-967.552a1.821,1.821,0,0,0-1.821,1.821v17.5a1.821,1.821,0,0,0,1.821,1.821,1.821,1.821,0,0,0,1.821-1.821v-17.5A1.821,1.821,0,0,0,338.581-967.552Z"
        data-name="Path 120"
        fill="#484848"
        id="Path_120" transform="translate(-336.76 967.552)"/>
    <path
        d="M445.151-852.908a5.337,5.337,0,0,0-1.7.279v-6.564a1.821,1.821,0,0,0-1.821-1.821,1.821,1.821,0,0,0-1.821,1.821v14.567a1.821,1.821,0,0,0,1.821,1.821,1.821,1.821,0,0,0,1.821-1.821v-2.937a1.7,1.7,0,0,1,1.7-1.7,1.7,1.7,0,0,1,1.7,1.7v7.93h0a1.819,1.819,0,0,0,1.818,1.762,1.82,1.82,0,0,0,1.818-1.762h0v-7.93A5.345,5.345,0,0,0,445.151-852.908Z"
        data-name="Path 121"
        fill="#484848"
        id="Path_121" transform="translate(-432.875 868.18)"/>
  </g>
</svg>
