<svg xmlns="http://www.w3.org/2000/svg" width="163.172" height="163.172" viewBox="0 0 163.172 163.172">
  <g id="Group_98" data-name="Group 98" transform="translate(-1305 -640)">
    <rect id="Rectangle_91" data-name="Rectangle 91" width="163.172" height="163.172" rx="12" transform="translate(1305 640)" fill="#008cd1"/>
    <g id="Group_94" data-name="Group 94" transform="translate(1359.063 674.696)">
      <path id="Path_120" data-name="Path 120" d="M342.48-967.552a5.72,5.72,0,0,0-5.72,5.72v54.985a5.72,5.72,0,0,0,5.72,5.72,5.72,5.72,0,0,0,5.72-5.72v-54.985A5.72,5.72,0,0,0,342.48-967.552Z" transform="translate(-336.76 967.552)" fill="#fff"/>
      <path id="Path_121" data-name="Path 121" d="M456.6-835.551a16.763,16.763,0,0,0-5.351.876v-20.619a5.72,5.72,0,0,0-5.72-5.72,5.72,5.72,0,0,0-5.72,5.72v45.76a5.72,5.72,0,0,0,5.72,5.72,5.72,5.72,0,0,0,5.72-5.72v-9.226a5.351,5.351,0,0,1,5.351-5.351,5.351,5.351,0,0,1,5.351,5.351v24.909h.01a5.716,5.716,0,0,0,5.71,5.535,5.716,5.716,0,0,0,5.711-5.535h.01V-818.76A16.791,16.791,0,0,0,456.6-835.551Z" transform="translate(-418.033 883.524)" fill="#fff"/>
    </g>
  </g>
</svg>
